<?xml version="1.0"?>
<svg width="900" height="900" xmlns="http://www.w3.org/2000/svg" xmlns:svg="http://www.w3.org/2000/svg" preserveAspectRatio="xMidYMid meet" version="1.0">
 <g class="layer">
  <title>Layer 1</title>
  <g fill="#9333ea" id="svg_1" transform="matrix(0.355697 0 0 -0.432213 -300.746 -362.298)">
   <path d="m2049.28,-854.32c-62,-16 -126,-54 -162,-97c-32,-39 -59,-87 -172,-306c-12,-23 -26,-50 -31,-58c-4,-8 -21,-40 -37,-70c-16,-30 -45,-86 -66,-123c-20,-37 -34,-72 -31,-77c10,-16 427,-13 447,3c9,6 33,44 53,82c44,82 53,95 69,95c7,0 38,-51 70,-112c141,-275 453,-884 566,-1107c99,-195 123,-229 186,-266l47,-28l190,1c104,1 192,4 195,6c4,5 -46,107 -89,181c-10,17 -45,84 -78,150c-33,66 -86,167 -117,225c-60,112 -149,281 -221,420c-24,47 -66,126 -92,175c-26,50 -79,151 -118,225c-39,74 -92,176 -118,225c-27,50 -75,143 -108,207c-33,65 -75,136 -94,157c-62,73 -198,116 -289,92z" id="svg_2"/>
   <path d="m1483.28,-1717.32c-9,-7 -31,-40 -48,-73c-62,-115 -123,-231 -185,-350c-35,-66 -75,-140 -88,-165c-14,-25 -37,-67 -52,-95c-14,-27 -54,-104 -90,-170c-121,-226 -173,-333 -168,-339c4,-3 93,-6 199,-6l192,0l59,44c58,43 62,48 170,262c61,121 127,248 147,284c20,36 55,101 77,145c22,44 62,121 89,170c26,50 65,124 86,165c21,41 44,83 52,92c8,10 12,24 9,33c-6,13 -37,15 -220,15c-155,0 -218,-3 -229,-12z" id="svg_3"/>
   <path d="m1809.28,-2163.32c-6,-4 -30,-45 -53,-92c-23,-47 -58,-112 -76,-145c-19,-33 -34,-66 -35,-73c0,-10 86,-12 413,-10l412,3l3,102c2,88 0,108 -19,145c-42,84 -17,78 -343,78c-160,0 -296,-4 -302,-8z" id="svg_4"/>
  </g>
 </g>
</svg>